<svg xmlns="http://www.w3.org/2000/svg" viewBox="0 0 120 120" role="img" aria-label="Palmera verde abierta con dos troncos">
  <defs>
    <linearGradient id="bg" x1="0" y1="0" x2="1" y2="1">
      <stop offset="0%" stop-color="#ecfdf5" />
      <stop offset="100%" stop-color="#dcfce7" />
    </linearGradient>
    <linearGradient id="leaf" x1="0" y1="0" x2="1" y2="1">
      <stop offset="0%" stop-color="#16a34a" />
      <stop offset="100%" stop-color="#14532d" />
    </linearGradient>
    <linearGradient id="trunk" x1="0" y1="0" x2="0" y2="1">
      <stop offset="0%" stop-color="#65a30d" />
      <stop offset="100%" stop-color="#3f6212" />
    </linearGradient>
  </defs>

  <rect width="120" height="120" rx="24" fill="url(#bg)" />

  <g fill="url(#leaf)">
    <path d="M60 49 C38 27, 19 21, 8 26 C23 35, 39 45, 56 57 Z" />
    <path d="M60 48 C48 21, 50 8, 60 3 C70 11, 72 28, 66 54 Z" />
    <path d="M60 49 C82 27, 101 21, 112 26 C97 35, 81 45, 64 57 Z" />
    <path d="M60 52 C38 45, 21 51, 10 63 C28 64, 43 63, 58 59 Z" />
    <path d="M60 52 C82 45, 99 51, 110 63 C92 64, 77 63, 62 59 Z" />
  </g>

  <g fill="none" stroke="url(#trunk)" stroke-linecap="round" stroke-width="8">
    <path d="M57 54 C51 69, 46 85, 43 105" />
    <path d="M64 54 C70 70, 75 86, 78 105" />
  </g>
</svg>
