<svg xmlns="http://www.w3.org/2000/svg" viewBox="0 0 120 120" role="img" aria-label="Logotipo de dos palmeras con troncos en forma de V curva">
  <defs>
    <linearGradient id="palmLeaves" x1="0%" y1="0%" x2="100%" y2="100%">
      <stop offset="0%" stop-color="#16a34a" />
      <stop offset="100%" stop-color="#14532d" />
    </linearGradient>
    <linearGradient id="palmTrunks" x1="0%" y1="0%" x2="0%" y2="100%">
      <stop offset="0%" stop-color="#65a30d" />
      <stop offset="100%" stop-color="#3f6212" />
    </linearGradient>
  </defs>

  <g fill="url(#palmLeaves)">
    <path d="M42 56 C26 42, 16 38, 6 40 C18 49, 28 56, 39 62 Z" />
    <path d="M42 56 C34 34, 35 22, 42 16 C49 24, 50 38, 46 60 Z" />
    <path d="M42 56 C53 35, 66 30, 78 34 C67 45, 56 53, 45 61 Z" />
    <path d="M42 58 C26 56, 16 62, 8 72 C20 72, 30 69, 40 64 Z" />
    <path d="M42 58 C56 54, 68 59, 77 68 C64 69, 53 66, 44 63 Z" />

    <path d="M78 56 C63 42, 52 38, 42 40 C54 49, 64 56, 75 62 Z" />
    <path d="M78 56 C70 34, 71 22, 78 16 C84 24, 85 38, 81 60 Z" />
    <path d="M78 56 C90 35, 103 30, 114 34 C104 45, 93 53, 82 61 Z" />
    <path d="M78 58 C63 56, 52 62, 44 72 C56 72, 67 69, 76 64 Z" />
    <path d="M78 58 C93 54, 104 59, 113 68 C100 69, 89 66, 80 63 Z" />
  </g>

  <g fill="none" stroke="url(#palmTrunks)" stroke-linecap="round" stroke-width="7">
    <path d="M60 108 C49 95, 43 78, 42 58" />
    <path d="M60 108 C71 95, 77 78, 78 58" />
  </g>

  <g stroke="#84cc16" stroke-width="1.6" opacity="0.55">
    <line x1="54" y1="96" x2="50" y2="93" />
    <line x1="50" y1="86" x2="46" y2="82" />
    <line x1="46" y1="74" x2="42" y2="70" />
    <line x1="66" y1="96" x2="70" y2="93" />
    <line x1="70" y1="86" x2="74" y2="82" />
    <line x1="74" y1="74" x2="78" y2="70" />
  </g>
</svg>
